<svg viewBox="0 0 480 480" fill="none" xmlns="http://www.w3.org/2000/svg" role="img" aria-label="Engineering und Steuerungstechnik">
  <defs>
    <linearGradient id="bg" x1="0%" y1="0%" x2="100%" y2="100%">
      <stop offset="0%" stop-color="#f6d8ad"/>
      <stop offset="100%" stop-color="#e89a52"/>
    </linearGradient>
    <linearGradient id="acc" x1="0%" y1="0%" x2="100%" y2="100%">
      <stop offset="0%" stop-color="#e2683c"/>
      <stop offset="100%" stop-color="#a83a1f"/>
    </linearGradient>
  </defs>

  <path d="M240 30c120 0 210 70 210 200 0 130-110 220-230 220S20 360 20 230 120 30 240 30Z" fill="url(#bg)"/>

  <!-- Gear -->
  <g transform="translate(240 240)" fill="url(#acc)">
    <g>
      <rect x="-16" y="-150" width="32" height="44" rx="6"/>
      <rect x="-16" y="106" width="32" height="44" rx="6"/>
      <rect x="-150" y="-16" width="44" height="32" rx="6"/>
      <rect x="106" y="-16" width="44" height="32" rx="6"/>
      <rect x="-16" y="-150" width="32" height="44" rx="6" transform="rotate(45)"/>
      <rect x="-16" y="106" width="32" height="44" rx="6" transform="rotate(45)"/>
      <rect x="-150" y="-16" width="44" height="32" rx="6" transform="rotate(45)"/>
      <rect x="106" y="-16" width="44" height="32" rx="6" transform="rotate(45)"/>
    </g>
    <circle r="120"/>
  </g>
  <circle cx="240" cy="240" r="74" fill="#fbf3e9"/>

  <!-- Circuit motif inside -->
  <g stroke="#e2683c" stroke-width="6" fill="none" stroke-linecap="round">
    <path d="M212 240h22m12 0h22"/>
    <path d="M240 212v22m0 12v22"/>
  </g>
  <g fill="#e2683c">
    <circle cx="240" cy="240" r="9"/>
    <circle cx="208" cy="240" r="6"/>
    <circle cx="272" cy="240" r="6"/>
    <circle cx="240" cy="208" r="6"/>
    <circle cx="240" cy="272" r="6"/>
  </g>
</svg>
